<svg width="28" height="34" viewBox="0 0 28 34" fill="none" xmlns="http://www.w3.org/2000/svg">
<g clip-path="url(#clip0_2_3350)">
<path d="M5.29499 17.2443C2.86684 14.0042 0.703613 10.8966 0.703613 6.49959C0.703613 3.48917 3.23659 2.43615 4.83662 2.07117" stroke="white" stroke-width="1.5" stroke-linecap="round" stroke-linejoin="round"/>
<path d="M7.36765 1.88068C7.36765 2.50582 6.8073 3.01185 6.1145 3.01185C5.50937 3.01185 5.0043 2.62399 4.88708 2.10844C4.87059 2.03364 4.86228 1.95727 4.8623 1.88068C4.8623 1.25554 5.42265 0.749512 6.1145 0.749512C6.80635 0.749512 7.36765 1.25554 7.36765 1.88068Z" stroke="white" stroke-width="1.5" stroke-linecap="round" stroke-linejoin="round"/>
<path d="M16.501 1.88068C16.501 2.50582 17.0613 3.01185 17.7532 3.01185C18.3593 3.01185 18.8643 2.62399 18.9815 2.10844C18.998 2.03364 19.0063 1.95727 19.0063 1.88068C19.0063 1.25554 18.446 0.749512 17.7532 0.749512C17.0604 0.749512 16.501 1.25554 16.501 1.88068Z" stroke="white" stroke-width="1.5" stroke-linecap="round" stroke-linejoin="round"/>
<path d="M18.5737 17.2454C21.0009 14.0054 23.1651 10.8977 23.1651 6.49981C23.1651 3.50179 20.6531 2.44495 19.0521 2.0752" stroke="white" stroke-width="1.5" stroke-linecap="round" stroke-linejoin="round"/>
<path d="M0.703613 6.49959C0.703613 3.48917 3.23659 2.43615 4.83662 2.07117" stroke="white" stroke-width="1.5" stroke-linecap="round" stroke-linejoin="round"/>
<path d="M18.5939 17.2606C18.3198 17.0375 17.9684 16.9322 17.6168 16.9679C17.2652 17.0037 16.9421 17.1775 16.7185 17.4512C15.2701 19.2221 13.6694 20.8627 11.9346 22.3542C10.1997 20.8625 8.59868 19.2219 7.14978 17.4512C7.04285 17.3055 6.90745 17.1831 6.7518 17.0914C6.59615 16.9997 6.42349 16.9405 6.24429 16.9175C6.06509 16.8945 5.88308 16.9081 5.7093 16.9575C5.53553 17.007 5.3736 17.0912 5.23335 17.2051C5.0931 17.319 4.97744 17.4602 4.89339 17.6201C4.80934 17.7801 4.75865 17.9554 4.74439 18.1355C4.73014 18.3156 4.75261 18.4967 4.81046 18.6679C4.8683 18.8391 4.96031 18.9967 5.0809 19.1312C8.02174 22.7525 10.9998 25.0396 11.1255 25.1349L11.1417 25.1454C11.1921 25.1826 11.245 25.2163 11.2999 25.2464L11.3123 25.254C11.4321 25.3166 11.5606 25.3609 11.6935 25.3855L11.7326 25.3922C11.7975 25.4024 11.8632 25.4078 11.9289 25.4084H11.9337C11.9997 25.4078 12.0657 25.4024 12.1309 25.3922L12.17 25.3855C12.3029 25.3609 12.4314 25.3166 12.5512 25.254L12.5636 25.2464C12.6185 25.2163 12.6714 25.1826 12.7218 25.1454L12.738 25.1349C14.9619 23.3558 16.9884 21.343 18.7826 19.1312C19.0045 18.8577 19.1091 18.5075 19.0738 18.157C19.0384 17.8066 18.8659 17.4843 18.5939 17.2606Z" stroke="white" stroke-width="1.5" stroke-linecap="round" stroke-linejoin="round"/>
<path d="M24.0792 27.2447C24.0792 27.2447 23.3111 33.2484 18.1708 33.2484C13.4498 33.2484 12.1824 29.6958 11.9766 25.415" stroke="white" stroke-width="1.5" stroke-linecap="round" stroke-linejoin="round"/>
<path d="M27.2979 24.7575C27.2979 26.1145 26.1543 27.2143 24.7335 27.2143C23.3126 27.2143 22.1729 26.1184 22.1729 24.7575C22.1729 23.3967 23.3212 22.3008 24.7373 22.3008C26.1534 22.3008 27.2979 23.4005 27.2979 24.7575Z" stroke="white" stroke-width="1.5" stroke-linecap="round" stroke-linejoin="round"/>
<path d="M25.0699 24.7576C25.0728 24.8249 25.0554 24.8915 25.0201 24.9488C24.9847 25.0062 24.933 25.0516 24.8716 25.0793C24.8103 25.1071 24.742 25.1158 24.6756 25.1043C24.6092 25.0929 24.5478 25.0618 24.4992 25.0152C24.4506 24.9685 24.4171 24.9084 24.403 24.8425C24.3889 24.7767 24.3948 24.7081 24.42 24.6456C24.4452 24.5832 24.4886 24.5297 24.5444 24.4921C24.6003 24.4544 24.6661 24.4344 24.7335 24.4345C24.7768 24.4336 24.8199 24.4413 24.8602 24.457C24.9005 24.4728 24.9374 24.4964 24.9686 24.5264C24.9999 24.5564 25.0249 24.5922 25.0423 24.6319C25.0596 24.6716 25.069 24.7143 25.0699 24.7576Z" stroke="white" stroke-width="1.5" stroke-linecap="round" stroke-linejoin="round"/>
</g>
<defs>
<clipPath id="clip0_2_3350">
<rect width="27.6426" height="33.551" fill="white" transform="translate(0.178711 0.224487)"/>
</clipPath>
</defs>
</svg>
