<svg width="37" height="28" viewBox="0 0 37 28" fill="none" xmlns="http://www.w3.org/2000/svg">
<g clip-path="url(#clip0_2_3337)">
<path d="M22.3682 19.8667C22.3888 20.9088 22.642 21.933 23.1092 22.8646C23.5764 23.7963 24.2459 24.6117 25.0687 25.2514C25.9337 25.9256 27.0688 26.5116 28.5504 26.8213C33.8172 27.9375 36.4771 27.6917 36.4717 22.0163C36.4717 18.1124 35.685 4.04305 26.5638 2.82155C22.7715 2.31297 22.0487 5.38697 22.0874 7.13326L22.3682 19.8667Z" stroke="white" stroke-width="1.5" stroke-linecap="round" stroke-linejoin="round"/>
<path d="M14.9652 19.8667C14.9449 20.9083 14.6923 21.9323 14.2259 22.8638C13.7595 23.7954 13.0911 24.6111 12.2693 25.2514C11.4033 25.9256 10.2692 26.5116 8.78752 26.8213C3.51986 27.9375 0.859921 27.6917 0.866222 22.0163C0.866222 18.1124 1.65295 4.04305 10.7741 2.82155C14.5665 2.31297 15.2893 5.38697 15.2506 7.13326L14.9652 19.8667Z" stroke="white" stroke-width="1.5" stroke-linecap="round" stroke-linejoin="round"/>
<path d="M19.7632 0.651367V7.32146C19.7632 8.45475 20.4374 9.51693 21.5635 10.1623L21.9901 10.4063" stroke="white" stroke-width="1.5" stroke-linecap="round" stroke-linejoin="round"/>
<path d="M17.5702 0.651367V7.32146C17.5702 8.45475 16.896 9.51693 15.7699 10.1623L15.3433 10.4063" stroke="white" stroke-width="1.5" stroke-linecap="round" stroke-linejoin="round"/>
<path d="M18.6668 11.3181C17.4255 12.4325 15.311 13.0473 15.311 13.0473" stroke="white" stroke-width="1.5" stroke-linecap="round" stroke-linejoin="round"/>
<path d="M18.6665 11.3181C19.9069 12.4325 22.0214 13.0473 22.0214 13.0473" stroke="white" stroke-width="1.5" stroke-linecap="round" stroke-linejoin="round"/>
</g>
<defs>
<clipPath id="clip0_2_3337">
<rect width="36.6" height="27.6894" fill="white" transform="translate(0.366699 0.155273)"/>
</clipPath>
</defs>
</svg>
